<svg width="25" height="25" viewBox="0 0 25 25" fill="none" xmlns="http://www.w3.org/2000/svg">
<path fill-rule="evenodd" clip-rule="evenodd" d="M22.5 9.50005H17.71L13.32 2.93005C12.92 2.34005 12.05 2.34005 11.66 2.93005L7.27 9.50005H2.5C1.95 9.50005 1.5 9.95005 1.5 10.5C1.5 10.59 1.51 10.68 1.54 10.77L4.08 20.04C4.31 20.88 5.08 21.5 6 21.5H19C19.92 21.5 20.69 20.88 20.93 20.04L23.47 10.77L23.5 10.5C23.5 9.95005 23.05 9.50005 22.5 9.50005ZM12.49 5.29005L15.3 9.50005H9.68L12.49 5.29005ZM12.5 17.5C11.4 17.5 10.5 16.6 10.5 15.5C10.5 14.4 11.4 13.5 12.5 13.5C13.6 13.5 14.5 14.4 14.5 15.5C14.5 16.6 13.6 17.5 12.5 17.5Z" fill="#783BFF"/>
</svg>
