<svg width="25" height="25" viewBox="0 0 25 25" fill="none" xmlns="http://www.w3.org/2000/svg">
<path fill-rule="evenodd" clip-rule="evenodd" d="M20.5 4.5H4.5C3.4 4.5 2.51 5.4 2.51 6.5L2.5 18.5C2.5 19.6 3.4 20.5 4.5 20.5H20.5C21.6 20.5 22.5 19.6 22.5 18.5V6.5C22.5 5.4 21.6 4.5 20.5 4.5ZM20.1 8.75L13.03 13.17C12.71 13.37 12.29 13.37 11.97 13.17L4.9 8.75C4.65 8.59 4.5 8.32 4.5 8.03C4.5 7.36 5.23 6.96 5.8 7.31L12.5 11.5L19.2 7.31C19.77 6.96 20.5 7.36 20.5 8.03C20.5 8.32 20.35 8.59 20.1 8.75Z" fill="#6AC75A"/>
</svg>
