<svg width="25" height="25" viewBox="0 0 25 25" fill="none" xmlns="http://www.w3.org/2000/svg">
<path fill-rule="evenodd" clip-rule="evenodd" d="M17 12.5C18.38 12.5 19.49 11.38 19.49 10C19.49 8.62 18.38 7.5 17 7.5C15.62 7.5 14.5 8.62 14.5 10C14.5 11.38 15.62 12.5 17 12.5ZM9.5 11.5C11.16 11.5 12.49 10.16 12.49 8.5C12.49 6.84 11.16 5.5 9.5 5.5C7.84 5.5 6.5 6.84 6.5 8.5C6.5 10.16 7.84 11.5 9.5 11.5ZM17 14.5C15.17 14.5 11.5 15.42 11.5 17.25V18.5C11.5 19.05 11.95 19.5 12.5 19.5H21.5C22.05 19.5 22.5 19.05 22.5 18.5V17.25C22.5 15.42 18.83 14.5 17 14.5ZM9.5 13.5C7.17 13.5 2.5 14.67 2.5 17V18.5C2.5 19.05 2.95 19.5 3.5 19.5H9.5V17.25C9.5 16.4 9.83 14.91 11.87 13.78C11 13.6 10.16 13.5 9.5 13.5Z" fill="#FF3276"/>
</svg>
